# xmcd
#
# Track frame offsets: 
#        150
#        27770
#        58020
#        98336
#        118136
#        153730
#        173901
#        200892
#        229643
#        249395
#
# Disc length: 3663 seconds
#
# Revision: 1
# Processed by: cddbd v1.5.2PL0 Copyright (c) Steve Scherf et al.
# Submitted via: ExactAudioCopy v0.95b4
#
DISCID=800e4d0a
DTITLE=Joel Frahm - We Used to Dance
DYEAR=2007
DGENRE=Jazz
TTITLE0=Bob`s Blues
TTITLE1=Nad Nooed
TTITLE2=Joanne Julia
TTITLE3=A Whole New You
TTITLE4=Spring Can Really Hang You Up the Most
TTITLE5=Jobimiola
TTITLE6=My Ideal
TTITLE7=Song for Abdullah
TTITLE8=The Dreamer
TTITLE9=We Used to Dance
EXTD=YEAR: 2007
EXTT0=
EXTT1=
EXTT2=
EXTT3=
EXTT4=
EXTT5=
EXTT6=
EXTT7=
EXTT8=
EXTT9=
PLAYORDER=
